<?xml version="1.0" encoding="utf-8"?>
<!-- Generator: Adobe Illustrator 25.2.1, SVG Export Plug-In . SVG Version: 6.00 Build 0)  -->
<svg version="1.1" id="Layer_1" xmlns="http://www.w3.org/2000/svg" xmlns:xlink="http://www.w3.org/1999/xlink" x="0px" y="0px"
	 viewBox="0 0 211 34" style="enable-background:new 0 0 211 34;" xml:space="preserve">
<style type="text/css">
	.st0{fill:#FFFFFF;}
	.st1{fill:#76C000;}
	.st2{enable-background:new    ;}
</style>
<path class="st0" d="M43.8,19c-0.5-1-1.2-1.9-2-2.7c-0.8-0.7-1.8-1.3-2.9-1.7c-0.6-0.2-1.2-0.4-1.8-0.6l-2.3-0.6l7.6-7.2h-9
	l-7.1,7.2l4.6,5c1.7-0.1,3.5,0.3,5,1.2c1.3,0.7,2,2.1,2,3.6v0.1c0,1.3-0.5,2.6-1.5,3.4c-1.1,0.9-2.4,1.3-3.8,1.3
	c-1.7,0-3.3-0.3-4.8-1.1c-1.1-0.6-2.2-1.4-3.1-2.4v7.8h0c2.4,1.1,5.1,1.7,7.8,1.6l0,0c1.7,0,3.4-0.3,5-0.8c1.4-0.5,2.7-1.3,3.8-2.3
	c1-1,1.8-2.1,2.4-3.4c0.6-1.4,0.8-2.9,0.8-4.4V23C44.5,21.7,44.3,20.3,43.8,19z"/>
<path class="st1" d="M50.3,11.1c-3,0-5.9,1.2-8,3.2c0.3,0.2,0.6,0.4,0.8,0.6c1.1,0.9,1.9,2,2.5,3.3c0.1,0.2,0.2,0.3,0.2,0.5
	c2.1-2.5,5.8-2.8,8.3-0.7c2.5,2.1,2.8,5.8,0.7,8.3c-2.1,2.5-5.8,2.8-8.3,0.7c-0.2-0.1-0.3-0.3-0.4-0.4c-0.1,0.5-0.3,1-0.5,1.5
	c-0.5,1.3-1.3,2.5-2.3,3.5c5,3.9,12.2,3,16.1-2s3-12.2-2-16.1C55.3,11.9,52.9,11.1,50.3,11.1L50.3,11.1z"/>
<polygon class="st0" points="31.1,0 26,6.2 42.4,6.2 42.4,0 "/>
<polygon class="st0" points="0,0 0,6.2 3.7,6.2 23,6.2 28.1,0 "/>
<rect x="10.1" class="st0" width="6.2" height="34"/>
<g class="st2">
	<path class="st0" d="M80.3,11.6v11.3h-3.1V11.6h-4.3V8.7h11.7v2.9H80.3z"/>
	<path class="st0" d="M87,22.8V8.7h10.7v2.8h-7.6v2.9h6.7v2.8h-6.7v3h7.7v2.8H87z"/>
	<path class="st0" d="M110.4,22.8l-6.8-9v9h-3.1V8.7h2.9l6.6,8.7V8.7h3.1v14.1H110.4z"/>
	<path class="st0" d="M116.4,11.4V8.7h9.5V11l-3.6,3.4c1.9,0.3,3.8,1.3,3.8,4c0,2.7-1.9,4.6-5.1,4.6c-2.5,0-4.3-1-5.5-2.4l2.1-2
		c1,1.1,2,1.7,3.4,1.7c1.2,0,2-0.7,2-1.7c0-1.2-1-1.8-2.8-1.8H119l-0.5-2l3.4-3.4H116.4z"/>
	<path class="st0" d="M134.6,23.1c-3.8,0-6.3-3.2-6.3-7.3c0-4.1,2.5-7.3,6.3-7.3c3.8,0,6.3,3.2,6.3,7.3
		C140.9,19.9,138.4,23.1,134.6,23.1z M134.6,11.3c-1.9,0-3.1,1.9-3.1,4.5c0,2.6,1.2,4.5,3.1,4.5c1.9,0,3.1-1.9,3.1-4.5
		C137.7,13.2,136.5,11.3,134.6,11.3z"/>
	<path class="st0" d="M154.8,22.8v-9.2l-4,6h-0.1l-3.9-6v9.2h-3V8.7h3.4l3.7,6l3.7-6h3.4v14.1H154.8z"/>
	<path class="st0" d="M161.2,22.8V8.7h10.7v2.8h-7.6v2.9h6.7v2.8h-6.7v3h7.7v2.8H161.2z"/>
	<path class="st0" d="M180.3,22.8h-5.5V8.7h5.5c4.4,0,7.5,3,7.5,7v0C187.8,19.7,184.7,22.8,180.3,22.8z M184.5,15.8
		c0-2.5-1.7-4.3-4.3-4.3h-2.4V20h2.4C182.8,20,184.5,18.3,184.5,15.8L184.5,15.8z"/>
	<path class="st0" d="M190.7,22.8V8.7h3.1v14.1H190.7z"/>
	<path class="st0" d="M207.8,22.8l-1.3-3.2h-6l-1.3,3.2h-3.2l6.1-14.2h2.9l6.1,14.2H207.8z M203.6,12.3l-1.9,4.6h3.8L203.6,12.3z"/>
</g>
</svg>
